<svg width="8" height="32" viewBox="0 0 8 32" fill="none" xmlns="http://www.w3.org/2000/svg">
  <path d="M3.19817 4.73413H8.67844V25.4717C8.67844 26.9983 8.37827 28.2333 7.77793 29.1767C7.17759 30.1201 6.31566 30.8105 5.19217 31.2479C4.07724 31.6852 2.74362 31.9039 1.19131 31.9039C1.00263 31.9039 0.822525 31.8997 0.650999 31.8911C0.470896 31.8911 0.282217 31.8868 0.0849609 31.8782V27.5943C0.230759 27.6029 0.359404 27.6072 0.470896 27.6072C0.573812 27.6158 0.685304 27.6201 0.805373 27.6201C1.68873 27.6201 2.30623 27.4314 2.65786 27.054C3.01807 26.6852 3.19817 26.1278 3.19817 25.3816V4.73413Z" fill="#F9FAFB"/>
</svg>
